<svg width="161" height="165" viewBox="0 0 161 165" fill="none" xmlns="http://www.w3.org/2000/svg">
<path d="M94.0941 7.7715C88.0876 -2.5905 72.9124 -2.5905 66.9059 7.7715C62.9016 14.6726 54.2282 17.4446 46.8718 14.1776C35.8207 9.26887 23.5435 18.051 24.8728 29.9063C25.7562 37.8056 20.3937 45.0698 12.4882 46.6826C0.623807 49.104 -4.06994 63.3064 4.08734 72.1339C6.706 74.9516 8.16138 78.6547 8.16138 82.5C8.16138 86.3453 6.706 90.0484 4.08734 92.8661C-4.06994 101.694 0.623807 115.896 12.4882 118.317C20.3937 119.93 25.7562 127.194 24.8728 135.094C23.5435 146.949 35.8207 155.731 46.8718 150.822C54.2282 147.555 62.9016 150.332 66.9059 157.228C72.9124 167.59 88.0876 167.59 94.0941 157.228C98.0984 150.327 106.772 147.555 114.128 150.822C125.179 155.731 137.457 146.949 136.127 135.094C135.244 127.194 140.606 119.93 148.512 118.317C160.376 115.896 165.07 101.694 156.913 92.8661C154.294 90.0484 152.839 86.3453 152.839 82.5C152.839 78.6547 154.294 74.9516 156.913 72.1339C165.07 63.3064 160.376 49.104 148.512 46.6826C140.606 45.0698 135.244 37.8056 136.127 29.9063C137.457 18.051 125.179 9.26887 114.128 14.1776C106.772 17.4446 98.0984 14.6685 94.0941 7.7715Z" fill="#D9D9D9"/>
</svg>
